<svg width="16" height="16" viewBox="0 0 16 16" fill="none" xmlns="http://www.w3.org/2000/svg">
<path d="M2.66634 11.334C2.66634 11.6876 2.80682 12.0267 3.05687 12.2768C3.30691 12.5268 3.64605 12.6673 3.99967 12.6673C4.3533 12.6673 4.69243 12.5268 4.94248 12.2768C5.19253 12.0267 5.33301 11.6876 5.33301 11.334M2.66634 11.334C2.66634 10.9804 2.80682 10.6412 3.05687 10.3912C3.30691 10.1411 3.64605 10.0007 3.99967 10.0007C4.3533 10.0007 4.69243 10.1411 4.94248 10.3912C5.19253 10.6412 5.33301 10.9804 5.33301 11.334M2.66634 11.334H1.33301V4.00065C1.33301 3.82384 1.40325 3.65427 1.52827 3.52925C1.65329 3.40422 1.82286 3.33398 1.99967 3.33398H11.333C12.2171 3.33398 13.0649 3.82565 13.69 4.70082C14.3152 5.57599 14.6663 6.76297 14.6663 8.00065M5.33301 11.334H10.6663M10.6663 11.334C10.6663 11.6876 10.8068 12.0267 11.0569 12.2768C11.3069 12.5268 11.6461 12.6673 11.9997 12.6673C12.3533 12.6673 12.6924 12.5268 12.9425 12.2768C13.1925 12.0267 13.333 11.6876 13.333 11.334M10.6663 11.334C10.6663 10.9804 10.8068 10.6412 11.0569 10.3912C11.3069 10.1411 11.6461 10.0007 11.9997 10.0007C12.3533 10.0007 12.6924 10.1411 12.9425 10.3912C13.1925 10.6412 13.333 10.9804 13.333 11.334M13.333 11.334H14.6663V8.00065M14.6663 8.00065H11.6663L10.6663 3.33398M1.33301 6.66732H11.333M4.66634 3.33398V6.66732M7.99967 3.33398V6.66732" stroke="currentColor" stroke-linecap="round" stroke-linejoin="round"/>
</svg>
