<svg width="36" height="36" viewBox="0 0 36 36" fill="none" xmlns="http://www.w3.org/2000/svg">
<path d="M21 4.5V10.5C21 10.8978 21.158 11.2794 21.4393 11.5607C21.7206 11.842 22.1022 12 22.5 12H28.5M21 4.5H10.5C9.70435 4.5 8.94129 4.81607 8.37868 5.37868C7.81607 5.94129 7.5 6.70435 7.5 7.5V18M21 4.5L28.5 12M28.5 12V18" stroke="currentColor" stroke-width="2" stroke-linecap="round" stroke-linejoin="round"/>
<path d="M5.96484 24.6C6.54084 24.6 7.05284 24.708 7.50084 24.924C7.94884 25.14 8.32484 25.444 8.62884 25.836C8.94084 26.22 9.17284 26.668 9.32484 27.18C9.48484 27.684 9.56484 28.224 9.56484 28.8C9.56484 29.576 9.42484 30.284 9.14484 30.924C8.86484 31.556 8.45684 32.06 7.92084 32.436C7.39284 32.812 6.74084 33 5.96484 33H3.09684C2.88884 33 2.71284 32.932 2.56884 32.796C2.43284 32.652 2.36484 32.476 2.36484 32.268V25.332C2.36484 25.124 2.43284 24.952 2.56884 24.816C2.71284 24.672 2.88884 24.6 3.09684 24.6H5.96484ZM5.84484 31.62C6.34884 31.62 6.76084 31.492 7.08084 31.236C7.40084 30.972 7.63284 30.628 7.77684 30.204C7.92884 29.772 8.00484 29.304 8.00484 28.8C8.00484 28.424 7.96084 28.068 7.87284 27.732C7.79284 27.388 7.66484 27.088 7.48884 26.832C7.31284 26.568 7.08884 26.36 6.81684 26.208C6.54484 26.056 6.22084 25.98 5.84484 25.98H3.74484L3.86484 25.872V31.752L3.79284 31.62H5.84484ZM18.671 28.8C18.671 29.4 18.571 29.96 18.371 30.48C18.171 31 17.887 31.46 17.519 31.86C17.159 32.252 16.727 32.56 16.223 32.784C15.727 33.008 15.183 33.12 14.591 33.12C13.999 33.12 13.455 33.008 12.959 32.784C12.463 32.56 12.031 32.252 11.663 31.86C11.303 31.46 11.023 31 10.823 30.48C10.623 29.96 10.523 29.4 10.523 28.8C10.523 28.2 10.623 27.64 10.823 27.12C11.023 26.6 11.303 26.144 11.663 25.752C12.031 25.352 12.463 25.04 12.959 24.816C13.455 24.592 13.999 24.48 14.591 24.48C15.183 24.48 15.727 24.592 16.223 24.816C16.727 25.04 17.159 25.352 17.519 25.752C17.887 26.144 18.171 26.6 18.371 27.12C18.571 27.64 18.671 28.2 18.671 28.8ZM17.111 28.8C17.111 28.264 17.003 27.78 16.787 27.348C16.571 26.908 16.275 26.56 15.899 26.304C15.523 26.048 15.087 25.92 14.591 25.92C14.095 25.92 13.659 26.048 13.283 26.304C12.907 26.56 12.611 26.904 12.395 27.336C12.187 27.768 12.083 28.256 12.083 28.8C12.083 29.336 12.187 29.824 12.395 30.264C12.611 30.696 12.907 31.04 13.283 31.296C13.659 31.552 14.095 31.68 14.591 31.68C15.087 31.68 15.523 31.552 15.899 31.296C16.275 31.04 16.571 30.696 16.787 30.264C17.003 29.824 17.111 29.336 17.111 28.8ZM25.9284 25.008C26.1364 25.112 26.2564 25.276 26.2884 25.5C26.3284 25.724 26.2724 25.928 26.1204 26.112C26.0164 26.256 25.8804 26.336 25.7124 26.352C25.5524 26.368 25.3884 26.336 25.2204 26.256C25.0284 26.168 24.8244 26.1 24.6084 26.052C24.4004 26.004 24.1804 25.98 23.9484 25.98C23.5164 25.98 23.1284 26.048 22.7844 26.184C22.4484 26.32 22.1604 26.516 21.9204 26.772C21.6804 27.02 21.4964 27.316 21.3684 27.66C21.2484 28.004 21.1884 28.384 21.1884 28.8C21.1884 29.288 21.2564 29.712 21.3924 30.072C21.5364 30.432 21.7324 30.732 21.9804 30.972C22.2284 31.212 22.5204 31.392 22.8564 31.512C23.1924 31.624 23.5564 31.68 23.9484 31.68C24.1644 31.68 24.3804 31.66 24.5964 31.62C24.8124 31.58 25.0204 31.508 25.2204 31.404C25.3884 31.324 25.5524 31.296 25.7124 31.32C25.8804 31.344 26.0204 31.428 26.1324 31.572C26.2924 31.772 26.3484 31.98 26.3004 32.196C26.2604 32.404 26.1404 32.556 25.9404 32.652C25.7324 32.756 25.5164 32.844 25.2924 32.916C25.0764 32.98 24.8564 33.028 24.6324 33.06C24.4084 33.1 24.1804 33.12 23.9484 33.12C23.3724 33.12 22.8244 33.028 22.3044 32.844C21.7924 32.66 21.3324 32.388 20.9244 32.028C20.5244 31.668 20.2084 31.22 19.9764 30.684C19.7444 30.14 19.6284 29.512 19.6284 28.8C19.6284 28.184 19.7324 27.616 19.9404 27.096C20.1564 26.576 20.4564 26.128 20.8404 25.752C21.2324 25.368 21.6924 25.072 22.2204 24.864C22.7484 24.648 23.3244 24.54 23.9484 24.54C24.3004 24.54 24.6444 24.58 24.9804 24.66C25.3164 24.74 25.6324 24.856 25.9284 25.008ZM33.3199 24.588C33.5039 24.588 33.6599 24.66 33.7879 24.804C33.9239 24.948 33.9919 25.1 33.9919 25.26C33.9919 25.412 33.9399 25.556 33.8359 25.692L31.4239 28.872L30.6079 27.756L32.7319 24.936C32.8999 24.704 33.0959 24.588 33.3199 24.588ZM27.9679 24.564C28.1999 24.564 28.3959 24.668 28.5559 24.876L33.8359 31.896C33.9319 32.024 33.9799 32.172 33.9799 32.34C33.9799 32.564 33.8999 32.74 33.7399 32.868C33.5799 32.996 33.4199 33.06 33.2599 33.06C33.0279 33.06 32.8319 32.956 32.6719 32.748L27.3919 25.728C27.2879 25.6 27.2359 25.456 27.2359 25.296C27.2359 25.088 27.3119 24.916 27.4639 24.78C27.6239 24.636 27.7919 24.564 27.9679 24.564ZM27.8599 33.06C27.6839 33.06 27.5319 32.996 27.4039 32.868C27.2759 32.732 27.2119 32.584 27.2119 32.424C27.2119 32.248 27.2719 32.084 27.3919 31.932L29.8279 28.632L30.6199 29.796L28.4599 32.724C28.2999 32.948 28.0999 33.06 27.8599 33.06Z" fill="currentColor"/>
</svg>
