<svg width="36" height="36" viewBox="0 0 36 36" fill="none" xmlns="http://www.w3.org/2000/svg">
<path d="M21 4.5V10.5C21 10.8978 21.158 11.2794 21.4393 11.5607C21.7206 11.842 22.1022 12 22.5 12H28.5M21 4.5H10.5C9.70435 4.5 8.94129 4.81607 8.37868 5.37868C7.81607 5.94129 7.5 6.70435 7.5 7.5V18M21 4.5L28.5 12M28.5 12V18" stroke="currentColor" stroke-width="2" stroke-linecap="round" stroke-linejoin="round"/>
<path d="M8.3779 32.14C7.8459 32.14 7.35123 32.0327 6.8939 31.818C6.43657 31.6033 6.06323 31.2953 5.7739 30.894C5.6619 30.726 5.6059 30.5627 5.6059 30.404C5.6059 30.1707 5.69457 29.9747 5.8719 29.816C6.05857 29.6573 6.24057 29.578 6.4179 29.578C6.5579 29.578 6.69323 29.62 6.8239 29.704C6.9639 29.788 7.0899 29.886 7.2019 29.998C7.38857 30.166 7.57057 30.2873 7.7479 30.362C7.93457 30.4273 8.14457 30.46 8.3779 30.46C8.6579 30.46 8.91923 30.39 9.1619 30.25C9.40457 30.11 9.60057 29.9233 9.7499 29.69C9.89923 29.4567 9.9739 29.2047 9.9739 28.934V23.054C9.9739 22.8113 10.0626 22.6107 10.2399 22.452C10.4172 22.284 10.6226 22.2 10.8559 22.2C11.1172 22.2 11.3272 22.284 11.4859 22.452C11.6446 22.6107 11.7239 22.8113 11.7239 23.054V28.934C11.7239 29.5033 11.5746 30.0307 11.2759 30.516C10.9772 31.0013 10.5759 31.3933 10.0719 31.692C9.5679 31.9907 9.00323 32.14 8.3779 32.14ZM17.8665 22.2C18.3518 22.2 18.8045 22.34 19.2245 22.62C19.6538 22.9 19.9992 23.278 20.2605 23.754C20.5218 24.23 20.6525 24.762 20.6525 25.35C20.6525 25.9287 20.5218 26.456 20.2605 26.932C19.9992 27.408 19.6538 27.7907 19.2245 28.08C18.8045 28.36 18.3518 28.5 17.8665 28.5H15.2905L15.4305 28.248V31.146C15.4305 31.3887 15.3558 31.594 15.2065 31.762C15.0572 31.9207 14.8612 32 14.6185 32C14.3852 32 14.1938 31.9207 14.0445 31.762C13.8952 31.594 13.8205 31.3887 13.8205 31.146V23.054C13.8205 22.8113 13.8998 22.6107 14.0585 22.452C14.2265 22.284 14.4318 22.2 14.6745 22.2H17.8665ZM17.8665 26.904C18.0438 26.904 18.2165 26.8293 18.3845 26.68C18.5525 26.5307 18.6925 26.3393 18.8045 26.106C18.9165 25.8633 18.9725 25.6113 18.9725 25.35C18.9725 25.0793 18.9165 24.8273 18.8045 24.594C18.6925 24.3607 18.5525 24.174 18.3845 24.034C18.2165 23.8847 18.0438 23.81 17.8665 23.81H15.2625L15.4305 23.558V27.128L15.2765 26.904H17.8665ZM26.8761 32.14C26.1667 32.14 25.5041 32.0093 24.8881 31.748C24.2721 31.4867 23.7307 31.1273 23.2641 30.67C22.7974 30.2033 22.4287 29.6667 22.1581 29.06C21.8967 28.4533 21.7661 27.8 21.7661 27.1C21.7661 26.4 21.8967 25.7467 22.1581 25.14C22.4287 24.5333 22.7974 24.0013 23.2641 23.544C23.7307 23.0773 24.2721 22.7133 24.8881 22.452C25.5041 22.1907 26.1667 22.06 26.8761 22.06C27.3147 22.06 27.7394 22.1067 28.1501 22.2C28.5607 22.2933 28.9387 22.4333 29.2841 22.62C29.4241 22.6947 29.5267 22.7973 29.5921 22.928C29.6667 23.0493 29.7041 23.1753 29.7041 23.306C29.7041 23.53 29.6294 23.7307 29.4801 23.908C29.3307 24.0853 29.1394 24.174 28.9061 24.174C28.8314 24.174 28.7521 24.1647 28.6681 24.146C28.5934 24.1273 28.5187 24.0993 28.4441 24.062C28.2107 23.9593 27.9634 23.88 27.7021 23.824C27.4407 23.768 27.1654 23.74 26.8761 23.74C26.2694 23.74 25.7141 23.894 25.2101 24.202C24.7154 24.5007 24.3187 24.9067 24.0201 25.42C23.7307 25.924 23.5861 26.484 23.5861 27.1C23.5861 27.7067 23.7307 28.2667 24.0201 28.78C24.3187 29.2933 24.7154 29.704 25.2101 30.012C25.7141 30.3107 26.2694 30.46 26.8761 30.46C27.1561 30.46 27.4641 30.432 27.8001 30.376C28.1361 30.32 28.4114 30.2453 28.6261 30.152L28.5001 30.572V28.178L28.7381 28.388H27.1841C26.9414 28.388 26.7361 28.3087 26.5681 28.15C26.4094 27.9913 26.3301 27.7907 26.3301 27.548C26.3301 27.3053 26.4094 27.1047 26.5681 26.946C26.7361 26.7873 26.9414 26.708 27.1841 26.708H29.4801C29.7227 26.708 29.9234 26.792 30.0821 26.96C30.2407 27.1187 30.3201 27.3193 30.3201 27.562V30.53C30.3201 30.7167 30.2734 30.8707 30.1801 30.992C30.0961 31.1133 29.9981 31.2113 29.8861 31.286C29.4567 31.5473 28.9854 31.7573 28.4721 31.916C27.9681 32.0653 27.4361 32.14 26.8761 32.14Z" fill="currentColor"/>
</svg>

