<svg width="36" height="36" viewBox="0 0 36 36" fill="none" xmlns="http://www.w3.org/2000/svg">
<path d="M21 4.5V10.5C21 10.8978 21.158 11.2794 21.4393 11.5607C21.7206 11.842 22.1022 12 22.5 12H28.5M21 4.5H10.5C9.70435 4.5 8.94129 4.81607 8.37868 5.37868C7.81607 5.94129 7.5 6.70435 7.5 7.5V18M21 4.5L28.5 12M28.5 12V18" stroke="currentColor" stroke-width="2" stroke-linecap="round" stroke-linejoin="round"/>
<path d="M9.94366 22.2C10.429 22.2 10.8817 22.34 11.3017 22.62C11.731 22.9 12.0763 23.278 12.3377 23.754C12.599 24.23 12.7297 24.762 12.7297 25.35C12.7297 25.9287 12.599 26.456 12.3377 26.932C12.0763 27.408 11.731 27.7907 11.3017 28.08C10.8817 28.36 10.429 28.5 9.94366 28.5H7.36766L7.50766 28.248V31.146C7.50766 31.3887 7.43299 31.594 7.28366 31.762C7.13432 31.9207 6.93832 32 6.69566 32C6.46232 32 6.27099 31.9207 6.12166 31.762C5.97232 31.594 5.89766 31.3887 5.89766 31.146V23.054C5.89766 22.8113 5.97699 22.6107 6.13566 22.452C6.30366 22.284 6.50899 22.2 6.75166 22.2H9.94366ZM9.94366 26.904C10.121 26.904 10.2937 26.8293 10.4617 26.68C10.6297 26.5307 10.7697 26.3393 10.8817 26.106C10.9937 25.8633 11.0497 25.6113 11.0497 25.35C11.0497 25.0793 10.9937 24.8273 10.8817 24.594C10.7697 24.3607 10.6297 24.174 10.4617 24.034C10.2937 23.8847 10.121 23.81 9.94366 23.81H7.33966L7.50766 23.558V27.128L7.35366 26.904H9.94366ZM18.5332 22.2C19.2052 22.2 19.8025 22.326 20.3252 22.578C20.8479 22.83 21.2865 23.1847 21.6412 23.642C22.0052 24.09 22.2759 24.6127 22.4532 25.21C22.6399 25.798 22.7332 26.428 22.7332 27.1C22.7332 28.0053 22.5699 28.8313 22.2432 29.578C21.9165 30.3153 21.4405 30.9033 20.8152 31.342C20.1992 31.7807 19.4385 32 18.5332 32H15.1872C14.9445 32 14.7392 31.9207 14.5712 31.762C14.4125 31.594 14.3332 31.3887 14.3332 31.146V23.054C14.3332 22.8113 14.4125 22.6107 14.5712 22.452C14.7392 22.284 14.9445 22.2 15.1872 22.2H18.5332ZM18.3932 30.39C18.9812 30.39 19.4619 30.2407 19.8352 29.942C20.2085 29.634 20.4792 29.2327 20.6472 28.738C20.8245 28.234 20.9132 27.688 20.9132 27.1C20.9132 26.6613 20.8619 26.246 20.7592 25.854C20.6659 25.4527 20.5165 25.1027 20.3112 24.804C20.1059 24.496 19.8445 24.2533 19.5272 24.076C19.2099 23.8987 18.8319 23.81 18.3932 23.81H15.9432L16.0832 23.684V30.544L15.9992 30.39H18.3932ZM25.223 32C24.9617 32 24.747 31.9207 24.579 31.762C24.4203 31.594 24.341 31.3887 24.341 31.146V23.054C24.341 22.8113 24.4203 22.6107 24.579 22.452C24.747 22.284 24.9523 22.2 25.195 22.2H29.745C29.9877 22.2 30.1883 22.2793 30.347 22.438C30.515 22.5873 30.599 22.7833 30.599 23.026C30.599 23.2313 30.515 23.4133 30.347 23.572C30.1883 23.7307 29.9877 23.81 29.745 23.81H25.965L26.091 23.642V26.456L25.993 26.274H29.115C29.3577 26.274 29.5583 26.3533 29.717 26.512C29.885 26.6613 29.969 26.8573 29.969 27.1C29.969 27.3053 29.885 27.4873 29.717 27.646C29.5583 27.8047 29.3577 27.884 29.115 27.884H25.965L26.091 27.758V31.146C26.091 31.3887 26.0023 31.594 25.825 31.762C25.657 31.9207 25.4563 32 25.223 32Z" fill="currentColor"/>
</svg>
