<svg width="26" height="21" viewBox="0 0 26 21" fill="none" xmlns="http://www.w3.org/2000/svg">
<path fill-rule="evenodd" clip-rule="evenodd" d="M1.79728 9.03818C8.62909 6.04975 13.1958 4.1182 15.4609 3.17065C21.9639 0.473776 23.3157 0 24.1925 0C24.3751 0 24.8135 0.0364446 25.1058 0.25511C25.325 0.437332 25.3981 0.692441 25.4346 0.874662C25.4711 1.05688 25.5077 1.45777 25.4711 1.78577C25.1058 5.46664 23.6079 14.4684 22.8042 18.5866C22.4754 20.3359 21.8178 20.919 21.1967 20.9919C19.8449 21.1012 18.7855 20.0808 17.4703 19.2426C15.4244 17.8941 14.2553 17.0559 12.2459 15.7439C9.9443 14.2133 11.4422 13.3751 12.7574 12.0266C13.0862 11.6622 19.1143 6.23197 19.2239 5.72175C19.2239 5.64886 19.2604 5.4302 19.1143 5.32087C18.9681 5.21153 18.7855 5.24798 18.6393 5.28442C18.4201 5.32087 15.1321 7.50752 8.73869 11.8079C7.78881 12.4639 6.94854 12.7555 6.18133 12.7555C5.34105 12.7555 3.73357 12.2817 2.52795 11.8808C1.0666 11.4071 -0.102476 11.152 0.00712543 10.3502C0.116727 9.91284 0.701266 9.47551 1.79728 9.03818Z" fill="currentColor"/>
</svg>
