<svg xmlns="http://www.w3.org/2000/svg" width="56" height="56" viewBox="0 0 56 56" fill="none">
<path fill-rule="evenodd" clip-rule="evenodd" d="M38.2 239.538C45.03 236.55 49.6 234.618 51.86 233.671C58.36 230.974 59.72 230.5 60.59 230.5C60.78 230.5 61.21 230.536 61.51 230.755C61.73 230.937 61.8 231.192 61.83 231.375C61.87 231.557 61.91 231.958 61.87 232.286C61.51 235.967 60.01 244.968 59.2 249.087C58.88 250.836 58.22 251.419 57.6 251.492C56.24 251.601 55.19 250.581 53.87 249.743C51.82 248.394 50.66 247.556 48.65 246.244C46.34 244.713 47.84 243.875 49.16 242.527C49.49 242.162 55.51 236.732 55.62 236.222C55.62 236.149 55.66 235.93 55.51 235.821C55.37 235.712 55.19 235.748 55.04 235.784C54.82 235.821 51.53 238.008 45.14 242.308C44.19 242.964 43.35 243.255 42.58 243.255C41.74 243.255 40.13 242.782 38.93 242.381C37.47 241.907 36.3 241.652 36.41 240.85C36.52 240.413 37.1 239.976 38.2 239.538Z" fill="currentColor" transform="translate(-36 -230)"/>
</svg>