<svg xmlns="http://www.w3.org/2000/svg" width="56" height="56" viewBox="0 0 56 56" fill="none">
<path fill-rule="evenodd" clip-rule="evenodd" d="M30.4 232.833H27.17C26.25 232.833 26.07 233.266 26.07 233.745C26.07 234.599 27.16 238.834 31.16 244.435C33.82 248.26 37.57 250.333 40.99 250.333C43.04 250.333 43.29 249.873 43.29 249.08V246.189C43.29 245.268 43.48 245.083 44.13 245.083C44.61 245.083 45.43 245.323 47.34 247.167C49.53 249.352 49.89 250.333 51.12 250.333H54.34C55.26 250.333 55.72 249.873 55.46 248.964C55.17 248.058 54.12 246.744 52.74 245.186C51.99 244.299 50.86 243.342 50.52 242.864C50.04 242.249 50.18 241.976 50.52 241.429C50.52 241.429 54.45 235.897 54.86 234.019C55.06 233.335 54.86 232.833 53.88 232.833H50.66C49.84 232.833 49.46 233.266 49.26 233.745C49.26 233.745 47.62 237.741 45.3 240.336C44.54 241.088 44.2 241.327 43.79 241.327C43.59 241.327 43.29 241.088 43.29 240.405V234.019C43.29 233.199 43.05 232.833 42.37 232.833H37.3C36.79 232.833 36.48 233.214 36.48 233.575C36.48 234.351 37.65 234.531 37.76 236.716V241.464C37.76 242.504 37.58 242.693 37.17 242.693C36.07 242.693 33.42 238.679 31.84 234.087C31.53 233.193 31.22 232.833 30.4 232.833Z" fill="currentColor" transform="translate(-26 -232)"/>
</svg>