<svg width="30" height="18" viewBox="0 0 30 18" fill="none" xmlns="http://www.w3.org/2000/svg">
<path fill-rule="evenodd" clip-rule="evenodd" d="M4.32895 0H1.10526C0.18421 0 0 0.432895 0 0.911842C0 1.76566 1.09237 6.00066 5.08882 11.6016C7.7525 15.4267 11.5058 17.5 14.9211 17.5C16.9704 17.5 17.2237 17.0395 17.2237 16.2464V13.3553C17.2237 12.4342 17.4171 12.25 18.0664 12.25C18.5454 12.25 19.3651 12.4895 21.2772 14.3334C23.4629 16.5191 23.823 17.5 25.0526 17.5H28.2763C29.1974 17.5 29.6579 17.0395 29.3917 16.1304C29.1016 15.225 28.058 13.9107 26.6728 12.3532C25.9212 11.4653 24.7938 10.5083 24.453 10.0303C23.9741 9.41592 24.1122 9.14237 24.453 8.59618C24.453 8.59618 28.3804 3.06342 28.7912 1.1854C28.9957 0.501974 28.7912 0 27.8149 0H24.5921C23.7724 0 23.3947 0.432895 23.1903 0.911842C23.1903 0.911842 21.5508 4.90737 19.2288 7.50289C18.4772 8.25447 18.1355 8.49395 17.7257 8.49395C17.5212 8.49395 17.2246 8.25447 17.2246 7.57197V1.1854C17.2246 0.365659 16.9861 0 16.3036 0H11.2378C10.7257 0 10.418 0.380395 10.418 0.741448C10.418 1.51789 11.5786 1.6975 11.6983 3.88224V8.63026C11.6983 9.67105 11.5104 9.85987 11.0996 9.85987C10.0072 9.85987 7.34908 5.84592 5.77224 1.25355C5.46276 0.359211 5.15237 0 4.32895 0Z" fill="currentColor"/>
</svg>
